<svg width="100" height="87" viewBox="0 0 100 87" fill="none" xmlns="http://www.w3.org/2000/svg">
<path d="M65.2783 41.5323C65.5288 41.2491 65.6377 40.8679 65.5724 40.4976L59.1459 1.68831C59.0588 1.15458 58.6449 0.740676 58.1111 0.653538C55.4098 0.217846 52.665 0 49.9528 0C47.5129 0 45.073 0.174277 42.6876 0.52283C42.1539 0.599076 41.7291 1.01298 41.6311 1.53581L34.4204 40.2906C34.3115 40.857 34.6164 41.4343 35.1502 41.6739C35.4551 41.8046 42.6441 44.9525 51.3797 44.9525C56.3357 44.9525 60.8015 43.9286 64.6574 41.9027C64.897 41.8373 65.1149 41.7066 65.2892 41.5214L65.2783 41.5323Z" fill="white"/>
<path d="M99.5536 71.5741L69.5888 45.9554C69.3601 45.7593 69.066 45.6504 68.7719 45.6504C68.5105 45.6504 68.2491 45.7266 68.0312 45.89C67.4431 46.3148 53.6861 56.5209 53.0761 71.3235C53.0108 71.5632 53.0217 71.8137 53.0979 72.0533C53.2177 72.4128 53.5009 72.696 53.8495 72.8267L90.6654 86.6599C90.807 86.7144 90.9595 86.7361 91.112 86.7361C91.4824 86.7361 91.8418 86.5728 92.0814 86.2678C95.3927 82.2158 98.0177 77.75 99.913 72.9683C100.109 72.4672 99.9675 71.9008 99.5645 71.5523L99.5536 71.5741Z" fill="white"/>
<path d="M31.9582 45.9013C31.7404 45.7379 31.479 45.6616 31.2175 45.6616C30.9234 45.6616 30.6402 45.7597 30.4006 45.9666L0.435899 71.5744C0.0328841 71.923 -0.108716 72.4894 0.0873456 72.9904C1.97171 77.7612 4.60765 82.238 7.90802 86.2899C8.14765 86.584 8.51799 86.7583 8.87743 86.7583C9.02992 86.7583 9.17152 86.7365 9.32402 86.682L46.14 72.8488C46.4994 72.7181 46.7717 72.424 46.8916 72.0755C46.9787 71.8358 46.9787 71.5853 46.9133 71.3457C46.3143 56.543 32.5464 46.3369 31.9582 45.9121V45.9013Z" fill="white"/>
</svg>
